# Blender 4.0.2
# www.blender.org
mtllib player.mtl
o chicken
v -0.057898 0.002579 0.000000
v 0.025353 0.265525 0.000000
v -0.081583 0.044737 -0.000000
v 0.144514 0.377527 -0.000000
v 0.141352 0.172658 -0.000000
v 0.091447 0.419194 -0.000000
v 0.079359 0.247887 -0.000000
v 0.055371 0.225537 -0.000000
v -0.006105 0.458623 -0.000000
v -0.123317 0.145744 0.000000
v -0.119967 0.130355 -0.000000
v -0.109972 0.411657 -0.000000
v -0.130074 0.161312 -0.000000
v -0.097133 0.105115 0.000000
v -0.099088 0.109548 -0.000000
v -0.088222 0.089788 -0.000000
v 0.055747 0.144313 -0.000000
v 0.030777 0.169849 0.000000
v 0.081965 0.004335 -0.000000
v -0.161186 0.326965 -0.000000
v -0.151109 0.199678 -0.000000
v 0.161993 0.283847 -0.000000
v 0.103613 0.075380 -0.000000
v 0.009872 0.033745 0.000000
v -0.015225 0.011410 -0.000000
v 0.036280 0.008916 0.000000
v 0.096968 0.110349 0.000000
v 0.127726 0.118947 0.000000
v 0.053440 0.342475 0.000000
v -0.117794 0.255803 -0.000000
v -0.081620 0.257049 -0.000000
v 0.144514 0.377527 -0.000000
vn -0.0000 -0.0000 1.0000
vn -0.0000 -0.0000 -1.0000
s 0
f 1//1 2//1 3//1
f 5//1 22//1 6//1
f 7//1 5//1 6//1
f 8//1 7//1 6//1
f 2//1 8//1 6//1 29//1
f 2//1 29//1 9//1
f 2//1 10//1 11//1
f 9//1 12//1 30//1
f 12//1 13//1 10//1 30//1
f 2//1 31//1 10//1
f 2//1 11//1 14//1
f 2//1 15//1 16//1
f 2//1 16//1 3//1
f 1//1 17//1 18//1
f 1//1 18//1 2//1
f 1//1 25//1 17//1
f 14//2 15//2 2//2
f 12//1 20//1 21//1
f 21//1 13//1 12//1
f 18//1 8//1 2//1
f 5//1 8//1 18//1
f 7//1 8//1 5//1
f 18//1 17//1 5//1
f 19//1 23//1 17//1
f 6//1 22//1 4//1
f 17//1 23//1 27//1
f 17//1 24//1 26//1
f 17//1 25//1 24//1
f 26//1 19//1 17//1
f 27//1 28//1 17//1
f 17//1 28//1 5//1
f 9//1 29//1 6//1
f 30//1 10//1 31//1 9//1
f 31//1 2//1 9//1
