# Blender 4.0.2
# www.blender.org
mtllib playermesh.mtl
o chicken
v -0.085888 0.000705 -0.000000
v 0.037039 0.388967 -0.000000
v -0.120861 0.062955 -0.000000
v 0.212989 0.554348 -0.000000
v 0.208321 0.251841 -0.000000
v 0.134633 0.615873 -0.000000
v 0.116783 0.362923 -0.000000
v 0.081363 0.329922 -0.000000
v -0.009412 0.674092 -0.000000
v -0.182484 0.212102 -0.000000
v -0.177538 0.189378 -0.000000
v -0.162780 0.604743 -0.000000
v -0.192462 0.235088 -0.000000
v -0.143821 0.152109 -0.000000
v -0.134006 0.142608 -0.000000
v -0.130664 0.129478 -0.000000
v 0.081919 0.209988 -0.000000
v 0.045048 0.247694 -0.000000
v 0.120631 0.003299 -0.000000
v -0.238402 0.479688 -0.000000
v -0.223522 0.291738 -0.000000
v 0.238799 0.416021 -0.000000
v 0.152596 0.108203 -0.000000
v 0.014180 0.046725 -0.000000
v -0.022877 0.013745 -0.000000
v 0.053173 0.010063 -0.000000
v 0.142785 0.159837 -0.000000
v 0.188201 0.172533 -0.000000
v 0.078511 0.502591 -0.000000
v -0.174329 0.374613 -0.000000
v -0.120915 0.376452 -0.000000
v 0.212989 0.554348 -0.000000
vn -0.0000 -0.0000 1.0000
s 0
f 1//1 2//1 3//1
f 5//1 22//1 6//1
f 7//1 5//1 6//1
f 8//1 7//1 6//1
f 8//1 29//1 2//1
f 2//1 29//1 9//1
f 2//1 10//1 11//1
f 9//1 12//1 30//1
f 13//1 30//1 12//1
f 2//1 31//1 10//1
f 2//1 11//1 14//1
f 2//1 15//1 16//1
f 2//1 16//1 3//1
f 1//1 17//1 18//1
f 1//1 18//1 2//1
f 1//1 25//1 17//1
f 14//1 15//1 2//1
f 12//1 20//1 21//1
f 21//1 13//1 12//1
f 18//1 8//1 2//1
f 5//1 8//1 18//1
f 7//1 8//1 5//1
f 18//1 17//1 5//1
f 19//1 23//1 17//1
f 6//1 22//1 4//1
f 17//1 23//1 27//1
f 17//1 24//1 26//1
f 17//1 25//1 24//1
f 26//1 19//1 17//1
f 27//1 28//1 17//1
f 17//1 28//1 5//1
f 9//1 29//1 6//1
f 30//1 31//1 9//1
f 31//1 2//1 9//1
f 8//1 6//1 29//1
f 13//1 10//1 30//1
f 30//1 10//1 31//1
